<svg id="Capa_1" data-name="Capa 1" xmlns="http://www.w3.org/2000/svg" viewBox="0 0 72.19 92.44"><defs><style>.cls-1{fill:#ef73ab;}</style></defs><title>cook</title><path class="cls-1" d="M45.3,33.71a1.3,1.3,0,1,1-1.3-1.3A1.31,1.31,0,0,1,45.3,33.71ZM56,32.41a1.31,1.31,0,1,0,1.3,1.3A1.31,1.31,0,0,0,56,32.41Zm-3.4,9a.74.74,0,0,0-.7.49,6,6,0,0,1-3.8,0,.74.74,0,0,0-.7-.49.76.76,0,0,0-.75.75c0,1.14,1.73,1.55,3.35,1.55s3.35-.41,3.35-1.55A.76.76,0,0,0,52.6,41.37Zm1-26.49h.07a.75.75,0,0,0,.68-.82L54,10.14a.76.76,0,0,0-.82-.67.74.74,0,0,0-.67.81l.37,3.92A.76.76,0,0,0,53.62,14.88ZM49.67,39.27h1.18a.75.75,0,0,0,0-1.5h-1V36.14a.75.75,0,0,0-1.5,0V38A1.26,1.26,0,0,0,49.67,39.27Zm28,41.64v6a1.75,1.75,0,0,1-1.75,1.75H72a1.75,1.75,0,0,1-1.75-1.75v-6A1.76,1.76,0,0,1,71,79.45s0-.09,0-.14V78.7a1,1,0,0,1,1-1h4a1,1,0,0,1,1,1v.61a.7.7,0,0,1,0,.14A1.76,1.76,0,0,1,77.68,80.91Zm-1.5,0a.25.25,0,0,0-.25-.25H72a.25.25,0,0,0-.25.25v6a.25.25,0,0,0,.25.25h4a.25.25,0,0,0,.25-.25Zm-6.65,0v6a1.75,1.75,0,0,1-1.75,1.75h-4a1.75,1.75,0,0,1-1.75-1.75v-6a1.76,1.76,0,0,1,.78-1.46s0-.09,0-.14V78.7a1,1,0,0,1,1-1h4a1,1,0,0,1,1,1v.61a.7.7,0,0,1,0,.14A1.76,1.76,0,0,1,69.53,80.91Zm-1.5,0a.25.25,0,0,0-.25-.25h-4a.25.25,0,0,0-.25.25v6a.25.25,0,0,0,.25.25h4A.25.25,0,0,0,68,86.9Zm-38.25,0v6A1.75,1.75,0,0,1,28,88.65h-4a1.75,1.75,0,0,1-1.75-1.75v-6a1.76,1.76,0,0,1,.78-1.46.7.7,0,0,1,0-.14V78.7a1,1,0,0,1,1-1h4a1,1,0,0,1,1,1v.61s0,.09,0,.14A1.76,1.76,0,0,1,29.78,80.91Zm-1.5,0a.25.25,0,0,0-.25-.25h-4a.25.25,0,0,0-.25.25v6a.25.25,0,0,0,.25.25h4a.25.25,0,0,0,.25-.25Zm9.65,0v6a1.75,1.75,0,0,1-1.75,1.75h-4a1.75,1.75,0,0,1-1.75-1.75v-6a1.76,1.76,0,0,1,.78-1.46.7.7,0,0,1,0-.14V78.7a1,1,0,0,1,1-1h4a1,1,0,0,1,1,1v.61s0,.09,0,.14A1.76,1.76,0,0,1,37.93,80.91Zm-1.5,0a.25.25,0,0,0-.25-.25h-4a.25.25,0,0,0-.25.25v6a.25.25,0,0,0,.25.25h4a.25.25,0,0,0,.25-.25ZM86.1,91.18l0,3.39a1.66,1.66,0,0,1-1.66,1.65H15.56a1.67,1.67,0,0,1-1.66-1.66V91.18a.74.74,0,0,1,.09-.33v0l8.15-15.17a1.64,1.64,0,0,1,1.44-.86H37.26a1.84,1.84,0,0,1,.39-.76l.17-.14V71.14l-14-2.51A4.51,4.51,0,0,1,22,60.54L36.7,50a4.54,4.54,0,0,1,2.21-.81v.08l1.47,9.17.36,2.22-.28,1.81,2.5.45a3.38,3.38,0,0,1,1.23,0l1.73.3.37-2.37a1.8,1.8,0,0,1,3.56.57l-.51,3.21a3.08,3.08,0,0,1,.24.27,3.44,3.44,0,0,1,.58,2.62l-.54,3.12A3.51,3.51,0,0,1,48,73l-.07.47H61.05a1.52,1.52,0,0,1,.21,0l-2-12.83L60.94,50.2l.2.17a4.47,4.47,0,0,1,2.09,2.68L69.32,74.8h7.1a1.63,1.63,0,0,1,1.44.86L86,90.83v0A.74.74,0,0,1,86.1,91.18ZM42.7,71.45l3.12.54a2,2,0,0,0,1.61-.43L44.32,71a.75.75,0,1,1,.26-1.48l3.59.63.11-.63-3.59-.63a.75.75,0,0,1,.25-1.47l3.6.62.11-.62-3.6-.63a.75.75,0,1,1,.26-1.48l3.12.54-.08-.12a2,2,0,0,0-1.29-.83l-3.13-.54A2,2,0,0,0,41.61,66l-.54,3.12A2,2,0,0,0,42.7,71.45Zm-4,2a1.52,1.52,0,0,1,.21,0h5.34l0-.2-1.89-.33a3.5,3.5,0,0,1-2.19-1.36l-1.18-.21Zm0,1.76A11.07,11.07,0,0,0,50,84.92a11.07,11.07,0,0,0,11.3-9.67.25.25,0,0,0-.06-.2.26.26,0,0,0-.19-.09H39a.28.28,0,0,0-.19.09A.25.25,0,0,0,38.7,75.25ZM50,86.42a13.82,13.82,0,0,1-3-.35v.51a.44.44,0,0,0,.31.38,15.29,15.29,0,0,0,5.48,0,.44.44,0,0,0,.31-.38v-.51A13.91,13.91,0,0,1,50,86.42ZM37.82,62V60.28l-1.91,1.37ZM15.91,90.43H84.09L76.54,76.37a.14.14,0,0,0-.12-.07H62.66a12.3,12.3,0,0,1-8.11,9.34v.94A1.93,1.93,0,0,1,53,88.44a16.91,16.91,0,0,1-6,0,1.93,1.93,0,0,1-1.54-1.86v-.94a12.3,12.3,0,0,1-8.11-9.34H23.58a.14.14,0,0,0-.12.07Zm68.68,1.5H15.4v2.63a.16.16,0,0,0,.16.16H84.42a.16.16,0,0,0,.16-.16Zm-31.7-8.72a.41.41,0,0,0,.16,0,9.67,9.67,0,0,0,1.31-.46.6.6,0,1,0-.48-1.1,11.2,11.2,0,0,1-1.15.41.59.59,0,0,0,.16,1.17Zm-17-49.91a40.86,40.86,0,0,1,.89-10.48c.06-.35.13-.69.22-1l-.12-.11a1.75,1.75,0,0,1-.34-1.48l.62-2.78a1.71,1.71,0,0,1,1.07-1.24l.86-5A3.9,3.9,0,0,1,37.4,8.06c0-2.36,2.4-4.28,5.35-4.28a6,6,0,0,1,3.62,1.15,6.3,6.3,0,0,1,7.26,0,6,6,0,0,1,3.62-1.15c3,0,5.35,1.92,5.35,4.28a3.9,3.9,0,0,1-1.72,3.13l.86,5a1.74,1.74,0,0,1,1.07,1.25l.62,2.78a1.72,1.72,0,0,1-.24,1.31,19.2,19.2,0,0,1,.67,5.42,49.57,49.57,0,0,1,.22,6.37,3.66,3.66,0,0,1,.22,3.48,4.68,4.68,0,0,1-.46.89c-.18,2.08-.45,4.35-.84,6.84a1,1,0,0,1-.94.8H57.23a8.88,8.88,0,0,1-1.27.91v3.41h1.22L55.68,59H44.32l-1.5-9.33H44V46.2a10,10,0,0,1-1.24-.89H37.9a1,1,0,0,1-.94-.8c-.38-2.5-.64-4.77-.81-6.85a5.1,5.1,0,0,1-.45-.87A3.71,3.71,0,0,1,35.92,33.3ZM54.46,47a13.74,13.74,0,0,1-4.42.91,13.91,13.91,0,0,1-4.5-.93v2.61c.26.29,1.78.91,4.46.91s4.2-.62,4.46-.91Zm6.39-15a18.3,18.3,0,0,1-6.92-7.22.19.19,0,0,0-.32,0c-3.35,4.11-11,5.76-14.52,6.33.56,9.28,3,15,10.95,15.36C57.61,46,60.18,40.67,60.85,31.94ZM62.14,34a29.62,29.62,0,0,1-.68,3.7,1.28,1.28,0,0,0,.51-.22,2.86,2.86,0,0,0,.93-1.28c.42-1.07.21-2.07-.26-2.25a.47.47,0,0,0-.17,0A.73.73,0,0,0,62.14,34ZM40.33,10.19a.76.76,0,0,1,.35.77l-.88,5.09H60.2L59.32,11a.76.76,0,0,1,.35-.77A2.58,2.58,0,0,0,61.1,8.06c0-1.53-1.73-2.78-3.85-2.78a4.38,4.38,0,0,0-3.09,1.17.75.75,0,0,1-1.06,0,4.69,4.69,0,0,0-6.2,0,.75.75,0,0,1-1.06,0,4.38,4.38,0,0,0-3.09-1.17c-2.12,0-3.85,1.25-3.85,2.78A2.58,2.58,0,0,0,40.33,10.19ZM38,20.53a.3.3,0,0,0,0,.21.27.27,0,0,0,.2.09H61.72a.27.27,0,0,0,.2-.09.3.3,0,0,0,0-.21l-.62-2.79a.26.26,0,0,0-.25-.19H38.9a.26.26,0,0,0-.25.19ZM37.1,36.24a2.22,2.22,0,0,0,1.44,1.5,31.56,31.56,0,0,1-.68-3.7.73.73,0,0,0-.33-.08.47.47,0,0,0-.17,0C36.89,34.17,36.68,35.17,37.1,36.24Zm9.21-21.37h.07a.76.76,0,0,0,.75-.68l.38-3.92a.75.75,0,0,0-1.5-.14l-.38,3.91A.75.75,0,0,0,46.31,14.87Zm9.38,67.05a.6.6,0,0,0,.34-.11,8,8,0,0,0,2.63-2.92.6.6,0,0,0-.26-.8.59.59,0,0,0-.81.26,6.9,6.9,0,0,1-2.24,2.47.61.61,0,0,0-.15.84A.58.58,0,0,0,55.69,81.92Z" transform="translate(-13.9 -3.78)"/></svg>