<svg id="Capa_1" data-name="Capa 1" xmlns="http://www.w3.org/2000/svg" viewBox="0 0 124.83 77.97"><defs><style>.cls-1{font-size:15.71px;font-family:Sansita-ExtraBold, Sansita;font-weight:800;}</style></defs><title>donuts-logo</title><path d="M94.51,147.14a1,1,0,0,0-.72-.13h0a1,1,0,0,0-.83,1.18,1,1,0,0,0,1.18.83h0a1,1,0,0,0,.74-.56,4.2,4.2,0,0,0,.48.78h0a3.18,3.18,0,0,1,.57,2.7,4.22,4.22,0,0,0,.3,2.86h0a3.18,3.18,0,0,1,0,2.76h0a4.25,4.25,0,0,0-.3,2.87h0a3.19,3.19,0,0,1-.57,2.7h0a4.23,4.23,0,0,0-.89,2.74h0a3.18,3.18,0,0,1-1.13,2.52h0a4.31,4.31,0,0,0-1.44,2.49h0a3.15,3.15,0,0,1-1.62,2.24h0a4.25,4.25,0,0,0-1.93,2.14h0a3.16,3.16,0,0,1-2,1.84h0A4.29,4.29,0,0,0,84,178.8h0a3.16,3.16,0,0,1-2.39,1.38h0A4.21,4.21,0,0,0,79,181.35h0a3.16,3.16,0,0,1-2.62.85h0a4.29,4.29,0,0,0-2.82.6h0a3.18,3.18,0,0,1-2.75.29h0a4.19,4.19,0,0,0-2.88,0h0a3.15,3.15,0,0,1-2.74-.29h0a4.29,4.29,0,0,0-2.82-.6h0a3.15,3.15,0,0,1-2.62-.85h0a4.24,4.24,0,0,0-2.64-1.17h0a3.19,3.19,0,0,1-2.39-1.38h0a4.25,4.25,0,0,0-2.33-1.7h0a3.18,3.18,0,0,1-2.05-1.84h0a4.16,4.16,0,0,0-1.93-2.14h0a3.18,3.18,0,0,1-1.62-2.24h0a4.21,4.21,0,0,0-1.44-2.49h0a3.17,3.17,0,0,1-1.12-2.52h0a4.23,4.23,0,0,0-.89-2.74h0a3.15,3.15,0,0,1-.57-2.7h0a4.25,4.25,0,0,0-.31-2.87h0a3.18,3.18,0,0,1,0-2.76h0a4.22,4.22,0,0,0,.31-2.86h0a3.15,3.15,0,0,1,.57-2.7h0a4.23,4.23,0,0,0,.89-2.74h0A3.16,3.16,0,0,1,45.31,144h0a4.2,4.2,0,0,0,1.44-2.5h0a3.18,3.18,0,0,1,1.62-2.23h0a4.2,4.2,0,0,0,1.93-2.14h0a3.17,3.17,0,0,1,2.05-1.85h0a4.19,4.19,0,0,0,2.33-1.69h0a3.19,3.19,0,0,1,2.39-1.38h0A4.29,4.29,0,0,0,59.71,131h0a3.12,3.12,0,0,1,2.62-.85h0a4.29,4.29,0,0,0,2.82-.6h0a3.15,3.15,0,0,1,2.74-.29h0a4.31,4.31,0,0,0,2.88,0h0a3.18,3.18,0,0,1,2.75.29h0a4.29,4.29,0,0,0,2.82.6h0A3.13,3.13,0,0,1,79,131h0a4.27,4.27,0,0,0,2.63,1.17h0A3.16,3.16,0,0,1,84,133.57h0a4.22,4.22,0,0,0,2.33,1.69h0a3.15,3.15,0,0,1,2,1.85h0a4.29,4.29,0,0,0,1.93,2.14h0a3.15,3.15,0,0,1,1.62,2.23h0a4.31,4.31,0,0,0,1.44,2.5h0a3.16,3.16,0,0,1,1.13,2.52h0A3.43,3.43,0,0,0,94.51,147.14ZM69.4,186.82a30.64,30.64,0,1,1,30.71-30.64A30.67,30.67,0,0,1,69.4,186.82Zm0-2a28.6,28.6,0,1,0-28.66-28.6A28.63,28.63,0,0,0,69.4,184.78Zm-12-10.87a1,1,0,0,0,1.56,1.32h0a1,1,0,1,0-1.56-1.31Zm31.25-30.64A1,1,0,1,0,87,144.58h0a1,1,0,0,0,1.57-1.32Zm-32.34-4.43a1,1,0,0,0-1.18.82h0a1,1,0,0,0,.82,1.19h0A1,1,0,0,0,57.1,140a1,1,0,0,0-.83-1.18Zm12.89-4.76h0a1,1,0,1,0-1.57,1.31h0a1,1,0,0,0,1.43.13,1,1,0,0,0,.13-1.44Zm-3.07,40.85a1,1,0,1,0-1.57,1.31h0a1,1,0,0,0,1.57-1.32Zm-5.66-8.16A1,1,0,0,0,62,168.08h0a1,1,0,0,0-1.57-1.31Zm11.26,4.08a1,1,0,1,0,1.56,1.31h0a1,1,0,1,0-1.56-1.31ZM81.78,165a1,1,0,0,0,1.85.86h0a1,1,0,0,0-.49-1.35,1,1,0,0,0-1.36.49Zm9.9-9.43a1,1,0,0,0-1.57,1.32h0a1,1,0,0,0,1.57-1.31ZM56,158.81a1,1,0,0,0-1.35-.49h0a1,1,0,0,0-.5,1.36h0a1,1,0,0,0,1.35.49,1,1,0,0,0,.5-1.35Zm8.39-16.33a1,1,0,0,0,.49,1.35,1,1,0,0,0,1.36-.49h0a1,1,0,1,0-1.85-.87ZM91,163.92a1,1,0,0,0,1.85.87h0a1,1,0,0,0-1.86-.86ZM56.33,148.38a1,1,0,1,0,1.57,1.31h0a1,1,0,1,0-1.56-1.31Zm-10.42,7.1a1,1,0,1,0,1.94-.63h0a1,1,0,0,0-1.28-.65,1,1,0,0,0-.66,1.29Zm2.19,9.91a1,1,0,0,0-1.2.81,1,1,0,0,0,.81,1.2h0a1,1,0,1,0,.39-2Zm0-20.42a1,1,0,1,0-.39,2h0a1,1,0,1,0,.39-2Zm35.82,26.55a1,1,0,0,0-.39,2h0a1,1,0,0,0,.39-2Zm-7.53,6.13a1,1,0,0,0-.83,1.18,1,1,0,0,0,1.18.83h0a1,1,0,0,0,.83-1.18,1,1,0,0,0-1.18-.83Zm1-36.77a1,1,0,0,0,.35,2h0a1,1,0,0,0,.83-1.18,1,1,0,0,0-1.19-.83Zm3.49,9.54a1,1,0,1,0,1.56,1.31h0a1,1,0,0,0-1.57-1.31Zm0-16.34h0a1,1,0,1,0,1.56,1.31h0a1,1,0,0,0-1.57-1.31Zm-11,32.32a9.71,9.71,0,1,0-9.72-9.71A9.72,9.72,0,0,0,69.91,166.4Z" transform="translate(-16.61 -125.54)"/><text class="cls-1" transform="matrix(0.59, 0.81, -0.81, 0.59, 6.84, 47.28)">D</text><text class="cls-1" transform="translate(13.52 56.3) rotate(46.97)">o</text><text class="cls-1" transform="translate(20.46 63.68) rotate(38.81)">n</text><text class="cls-1" transform="translate(28.75 70.26) rotate(28.13)">u</text><text class="cls-1" transform="translate(38.32 75.06) rotate(17.83)">t</text><text class="cls-1" transform="translate(44.49 77.05) rotate(7.94)">s</text><text class="cls-1" transform="matrix(1, 0.02, -0.02, 1, 52.91, 77.96)"> </text><text class="cls-1" transform="translate(57 78.24) rotate(-10.71)">H</text><text class="cls-1" transform="translate(69.06 75.56) rotate(-25.88)">e</text><text class="cls-1" transform="translate(77.88 71.11) rotate(-37.75)">a</text><text class="cls-1" transform="matrix(0.68, -0.73, 0.73, 0.68, 85.87, 64.76)">v</text><text class="cls-1" transform="translate(92.26 57.76) rotate(-54.25)">e</text><text class="cls-1" transform="translate(97.61 50.29) rotate(-60.44)">n</text></svg>