<svg id="Capa_1" data-name="Capa 1" xmlns="http://www.w3.org/2000/svg" viewBox="0 0 26.91 35.61"><defs><style>.cls-1{fill:#ef73ab;}</style></defs><title>eco</title><path class="cls-1" d="M3.63,30.58a13.09,13.09,0,0,0-.86,4.9,1,1,0,0,1-2,0A14.23,14.23,0,0,1,2.26,29C-.44,24.84.5,17.58,6.13,13.14a22.7,22.7,0,0,1,7.77-3.9l.57-.19L15,8.86c4.47-1.52,6.74-3,9.27-6.8L25.11.85,26,2c3.82,5.34.92,20.64-4.76,26.33C15.82,33.72,8.15,34.59,3.63,30.58Zm1-1.82h0c3.61,3.61,10.34,3,15.14-1.83C24.4,22.32,27,10,25,4.52c-2.48,3.25-5,4.77-9.34,6.23l-.57.19-.57.19a20.82,20.82,0,0,0-7.16,3.58C3,18.2,1.94,23.65,3.47,27.06c.24-.32.49-.63.76-.93,1.66-1.88,3.22-3,7.18-5.52,4.92-3.11,7-4.79,8.64-7.65a1,1,0,1,1,1.73,1c-1.89,3.23-4.12,5-9.3,8.33C8.56,24.78,6.09,26.66,4.62,28.76Z" transform="translate(-0.77 -0.85)"/></svg>