<svg id="Capa_1" data-name="Capa 1" xmlns="http://www.w3.org/2000/svg" viewBox="0 0 85.41 82.33"><defs><style>.cls-1{fill:#ef73ab;}</style></defs><title>money</title><path class="cls-1" d="M53.33,55.49A23.57,23.57,0,1,1,76.9,31.92,23.57,23.57,0,0,1,53.33,55.49Zm0-43.73A20.17,20.17,0,1,0,73.5,31.93h0A20.19,20.19,0,0,0,53.33,11.76Z" transform="translate(-6.62 -8.35)"/><path class="cls-1" d="M90.51,61.69a6.49,6.49,0,0,0-8.07-1.55l-1.86-2.26a5.19,5.19,0,0,0-6.75-1L72,58.09l-1.1-1.31a5.18,5.18,0,0,0-6.74-1L51.74,63.87l-13.8-5.68a13,13,0,0,0-13,1.86l-17.6,14a1.7,1.7,0,0,0,2,2.78l.16-.13,17.6-14a9.6,9.6,0,0,1,9.64-1.37l24.4,10a3.15,3.15,0,0,1-2.35,5.84L42.24,70.73a1.7,1.7,0,0,0-1.42,3.09l.18.07,16.46,6.49a6.5,6.5,0,0,0,2.39.45,6.58,6.58,0,0,0,6.56-6.25l.19-.1L83.8,63.25a3.12,3.12,0,0,1,3.5,5.16L64,84.93A12.09,12.09,0,0,1,53.67,86.7L34,81.16a11.52,11.52,0,0,0-10.42,2.17l-5.3,4.35a1.7,1.7,0,0,0-.2,2.4,1.68,1.68,0,0,0,2.35.22L25.78,86a8.1,8.1,0,0,1,7.34-1.53L52.74,90a15.46,15.46,0,0,0,13.18-2.3L89.27,71.18a6.5,6.5,0,0,0,1.56-9.07A4.63,4.63,0,0,0,90.51,61.69ZM65.94,58.62a1.77,1.77,0,0,1,2.31.35l.84,1L58.78,66.76l-3.23-1.33Zm-.38,12.47a6.53,6.53,0,0,0-3-2.76l13.09-8.61a1.79,1.79,0,0,1,2.31.34L79.54,62Z" transform="translate(-6.62 -8.35)"/><path class="cls-1" d="M53.54,24.62a22.63,22.63,0,0,1,4.91.7,1.7,1.7,0,0,0,.9-3.28h0a27.21,27.21,0,0,0-4.11-.73V19a1.7,1.7,0,0,0-3.4,0v2.33c-4.56.62-5.11,3.73-5.11,5.15,0,3.53,3.64,5,5.82,5.92l.42.17.64.26c2.2.87,3.16,1.42,3.16,3s-1.06,2.35-3.13,2.44h-.36A20.24,20.24,0,0,1,47.6,36.9,1.7,1.7,0,1,0,46.24,40l.14,0a27.85,27.85,0,0,0,5.46,1.46v2.29a1.7,1.7,0,0,0,3.4,0V41.45c3.09-.6,4.93-2.65,4.93-5.67,0-4-3.32-5.32-5.3-6.11l-1-.42c-1.56-.64-3.71-1.52-3.71-2.77C50.13,25.88,50.13,24.62,53.54,24.62Z" transform="translate(-6.62 -8.35)"/></svg>